<svg width="70" height="70" viewBox="0 0 70 70" fill="none" xmlns="http://www.w3.org/2000/svg">
<circle cx="35" cy="35" r="35" fill="url(#paint0_linear_30300_1026)"/>
<path fill-rule="evenodd" clip-rule="evenodd" d="M44.1647 39.0826C43.6656 38.8331 41.2189 37.6308 40.7634 37.4634C40.3079 37.2976 39.9763 37.2156 39.643 37.7146C39.3114 38.2102 38.3585 39.3321 38.0688 39.6637C37.7774 39.9969 37.4877 40.0371 36.9903 39.7892C36.4929 39.5381 34.8886 39.014 32.9878 37.3194C31.5091 35.9999 30.5093 34.3706 30.2196 33.8716C29.9298 33.3743 30.1877 33.1047 30.4373 32.8569C30.6617 32.6341 30.9346 32.2758 31.1842 31.9861C31.4337 31.6948 31.5158 31.4871 31.6816 31.1539C31.849 30.8223 31.7653 30.5327 31.6397 30.2832C31.5158 30.0337 30.521 27.5839 30.1057 26.5876C29.7021 25.618 29.2918 25.7503 28.987 25.7336C28.6956 25.7202 28.364 25.7168 28.0324 25.7168C27.7008 25.7168 27.1616 25.8407 26.7061 26.3397C26.2489 26.8371 24.9644 28.041 24.9644 30.4908C24.9644 32.9389 26.7463 35.305 26.9958 35.6382C27.2453 35.9697 30.5043 40.9966 35.4965 43.1516C36.6855 43.664 37.6116 43.9705 38.3334 44.1982C39.5258 44.5783 40.611 44.5247 41.4684 44.3958C42.423 44.2534 44.4125 43.1918 44.8279 42.0297C45.2415 40.8676 45.2415 39.8713 45.1176 39.6637C44.9936 39.456 44.6621 39.3321 44.163 39.0826H44.1647ZM35.0845 51.4789H35.0778C32.1127 51.4794 29.202 50.6824 26.6508 49.1714L26.0479 48.8131L19.7812 50.4574L21.4542 44.3489L21.0607 43.7226C19.403 41.0842 18.5257 38.0307 18.5302 34.9148C18.5336 25.7888 25.9592 18.3641 35.0912 18.3641C39.5124 18.3641 43.669 20.0888 46.7939 23.2168C48.3353 24.7516 49.557 26.5768 50.3883 28.5867C51.2196 30.5967 51.6441 32.7515 51.6371 34.9265C51.6338 44.0525 44.2082 51.4789 35.0845 51.4789V51.4789ZM49.172 20.8407C47.3268 18.9836 45.1314 17.511 42.7129 16.5085C40.2944 15.5059 37.7009 14.9932 35.0828 15.0001C24.1069 15.0001 15.1708 23.9335 15.1675 34.9131C15.1658 38.4229 16.0818 41.8489 17.8252 44.868L15 55.1879L25.5572 52.4183C28.4777 54.0092 31.7504 54.8429 35.0761 54.8429H35.0845C46.0604 54.8429 54.9966 45.9095 54.9999 34.9282C55.008 32.3114 54.4971 29.719 53.4968 27.3009C52.4964 24.8829 51.0265 22.6871 49.172 20.8407" fill="white"/>
<defs>
<linearGradient id="paint0_linear_30300_1026" x1="35" y1="0" x2="35" y2="70" gradientUnits="userSpaceOnUse">
<stop stop-color="#25DE66"/>
<stop offset="1" stop-color="#1EBB55"/>
</linearGradient>
</defs>
</svg>
