<svg width="398" height="144" viewBox="0 0 398 144" fill="none" xmlns="http://www.w3.org/2000/svg">
<path d="M303.929 76.0825C304.369 76.1498 304.497 76.404 304.313 76.845" stroke="#C6959B" stroke-width="2"/>
<path d="M278.42 72.8157C278.7 75.3908 278.828 77.5116 278.804 79.1778C278.801 79.363 278.727 79.5919 278.584 79.8646C278.509 80.0093 278.427 80.0127 278.338 79.8747C278.188 79.6458 277.972 79.5162 277.692 79.4859" stroke="#E2B3B6" stroke-width="2"/>
<path d="M382.689 91.2255C382.016 91.2423 381.806 90.7879 382.058 89.8622C382.12 89.6266 382.424 89.2899 382.97 88.8523C383.1 88.748 383.187 88.6133 383.232 88.4484L383.734 86.5347" stroke="#D4A2A7" stroke-width="2"/>
<path d="M390.906 99.4509C390.845 99.8279 390.671 100.181 390.384 100.511C390.264 100.649 390.223 100.808 390.261 100.986C390.329 101.326 390.546 101.636 390.911 101.915" stroke="#D4A2A7" stroke-width="2"/>
<path d="M363.348 134.009C363.065 133.955 362.923 133.899 362.923 133.842" stroke="#C6959B" stroke-width="2"/>
<path d="M324.698 129.636C324.995 130.141 325.332 130.299 325.708 130.111" stroke="#C6959B" stroke-width="2"/>
<path d="M305.691 133.403C306.193 133.312 306.502 133.435 306.618 133.771" stroke="#E2B3B6" stroke-width="2"/>
<path d="M252.219 130.661C251.741 131.159 251.446 130.997 251.333 130.176" stroke="#E9ADAF" stroke-width="2"/>
<path d="M353.609 99.1075C353.204 101.228 353.179 106.384 355.838 107.54C356.029 107.624 356.104 107.565 356.063 107.363C355.479 104.488 355.45 101.605 355.976 98.7137C356.054 98.2862 355.875 98.0976 355.438 98.1481L354.552 98.2441C354.022 98.3047 353.708 98.5925 353.609 99.1075Z" stroke="#D4A2A7" stroke-width="2"/>
<path d="M357.411 98.9561C356.844 102.258 356.996 105.414 357.867 108.424C358.046 109.035 358.461 109.282 359.014 109.504C359.049 109.518 359.086 109.523 359.123 109.519C359.16 109.515 359.195 109.501 359.225 109.479C359.255 109.457 359.279 109.428 359.294 109.394C359.309 109.361 359.315 109.324 359.311 109.287C358.994 105.985 359.188 102.794 360.572 99.5166C360.777 99.0285 360.616 98.7339 360.09 98.6329L358.369 98.3047C357.822 98.2003 357.503 98.4175 357.411 98.9561Z" stroke="#D4A2A7" stroke-width="2"/>
<path d="M352.902 104.849C352.277 102.748 352.456 101.042 352.692 98.83C352.696 98.7905 352.69 98.7506 352.676 98.7136C352.661 98.6766 352.638 98.6435 352.607 98.6169C352.577 98.5904 352.54 98.5711 352.501 98.5608C352.461 98.5504 352.419 98.5492 352.379 98.5573C351.112 98.8434 349.964 99.377 348.936 100.158C348.847 100.226 348.788 100.327 348.773 100.438C348.758 100.549 348.787 100.663 348.854 100.754C349.988 102.275 351.238 103.698 352.605 105.02C352.929 105.334 353.028 105.276 352.902 104.849Z" stroke="#CD8F94" stroke-width="2"/>
<path d="M363.097 104.359C363.149 104.318 363.188 104.26 363.215 104.182C363.557 103.179 363.927 102.408 364.327 101.869C364.627 101.466 364.573 101.114 364.163 100.814L362.713 99.7488C362.296 99.4424 361.999 99.53 361.822 100.011C360.654 103.165 360.321 106.469 360.823 109.923C360.891 110.391 361.161 110.618 361.632 110.605C361.71 110.602 361.784 110.571 361.839 110.516C361.895 110.462 361.927 110.389 361.929 110.312C362.004 108.366 362.336 106.469 362.923 104.621C362.957 104.517 363.015 104.43 363.097 104.359Z" stroke="#D4A2A7" stroke-width="2"/>
<path d="M373.149 99.9457C371.453 100.577 369.809 102.521 368.922 104.031C368.507 104.737 368.738 105.454 368.461 106.101C364.69 115.003 357.948 119.295 349.423 123.178C349.368 123.202 349.32 123.239 349.284 123.287C349.248 123.334 349.224 123.39 349.215 123.449C349.206 123.508 349.211 123.569 349.232 123.625C349.252 123.682 349.286 123.733 349.331 123.774C351.385 125.637 352.953 125.541 355.31 124.208C362.735 120.01 368.26 114.217 371.884 106.828C372.034 106.525 372.126 106.146 372.16 105.692C372.17 105.527 372.222 105.374 372.314 105.232C373.082 104.036 372.975 102.995 373.415 101.718C373.562 101.301 373.66 100.851 373.707 100.37C373.715 100.301 373.704 100.231 373.676 100.167C373.648 100.103 373.604 100.047 373.548 100.005C373.492 99.9623 373.426 99.9346 373.356 99.9242C373.286 99.9139 373.215 99.9213 373.149 99.9457Z" stroke="#C6959B" stroke-width="2"/>
<path d="M383.401 108.272C382.468 110.054 382.719 112.917 382.796 114.851C382.827 115.676 383.104 115.764 383.626 115.114C386.347 111.716 388.811 106.929 389.277 102.566C389.328 102.085 389.163 101.693 388.78 101.39L387.028 99.9962C386.963 99.9452 386.887 99.9114 386.805 99.8982C386.723 99.8849 386.64 99.8926 386.562 99.9205C386.484 99.9484 386.415 99.9956 386.361 100.057C386.307 100.119 386.271 100.194 386.254 100.274C385.711 103.001 384.76 105.667 383.401 108.272Z" stroke="#C6959B" stroke-width="2"/>
<path d="M362.175 111.832C356.362 109.742 351.729 106.261 348.276 101.39C348.224 101.317 348.156 101.255 348.078 101.209C348 101.164 347.913 101.135 347.823 101.126C347.732 101.116 347.641 101.126 347.555 101.154C347.468 101.182 347.389 101.228 347.323 101.289L345.76 102.723C345.637 102.837 345.579 102.979 345.586 103.147C345.644 104.127 345.922 105.002 346.421 105.773C349.592 110.696 355.361 113.599 361.063 114.665C361.183 114.686 361.307 114.678 361.423 114.641C361.539 114.604 361.644 114.54 361.729 114.453L363.389 112.746C363.419 112.715 363.441 112.679 363.453 112.638C363.466 112.598 363.469 112.555 363.462 112.514C363.455 112.472 363.438 112.433 363.413 112.399C363.388 112.364 363.355 112.336 363.318 112.317C362.976 112.145 362.595 111.984 362.175 111.832Z" stroke="#CD8F94" stroke-width="2"/>
<path d="M367.447 106.02C367.607 105.603 367.573 105.202 367.344 104.818L366.084 102.718C365.848 102.327 365.624 102.332 365.413 102.733C364.04 105.315 363.339 108.073 363.312 111.009C363.309 111.221 363.408 111.364 363.609 111.438L363.993 111.584C364.192 111.659 364.352 111.611 364.475 111.443C365.701 109.763 366.692 107.956 367.447 106.02Z" stroke="#D4A2A7" stroke-width="2"/>
<path d="M388.821 108.206C388.808 108.248 388.806 108.292 388.813 108.335C388.821 108.378 388.839 108.418 388.865 108.453C388.891 108.488 388.926 108.517 388.965 108.536C389.005 108.555 389.049 108.565 389.093 108.565L392.884 108.52C392.931 108.519 392.977 108.506 393.018 108.484C393.058 108.461 393.093 108.429 393.118 108.39C393.143 108.35 393.157 108.306 393.16 108.26C393.163 108.214 393.155 108.168 393.135 108.126L390.886 103.319C390.862 103.267 390.823 103.223 390.774 103.194C390.724 103.165 390.667 103.151 390.61 103.155C390.552 103.159 390.497 103.18 390.452 103.216C390.407 103.251 390.374 103.299 390.358 103.354L388.821 108.206Z" stroke="#D4A2A7" stroke-width="2"/>
<path d="M344.361 109.958C346.39 114.291 352.082 116.79 356.575 117.214C358.143 117.361 359.26 116.74 360.326 115.715C360.346 115.696 360.36 115.672 360.368 115.646C360.375 115.619 360.375 115.591 360.368 115.565C360.361 115.538 360.346 115.514 360.326 115.495C360.306 115.477 360.281 115.463 360.254 115.457C353.968 114.038 347.666 110.782 344.935 104.702C344.914 104.655 344.88 104.615 344.838 104.585C344.795 104.555 344.746 104.536 344.694 104.531C344.642 104.526 344.59 104.534 344.542 104.555C344.494 104.577 344.453 104.61 344.423 104.652C343.434 106.025 343.567 107.494 343.998 109.539C344.018 109.647 344.075 109.721 344.167 109.762C344.256 109.805 344.32 109.871 344.361 109.958Z" stroke="#CD8F94" stroke-width="2"/>
<path d="M355.899 128.005C361.145 125.288 365.162 121.688 369.414 117.664C369.442 117.637 369.455 117.607 369.455 117.573C369.455 117.529 369.46 117.487 369.471 117.447C369.481 117.4 369.512 117.351 369.563 117.3C371.083 115.755 372.425 114.139 373.59 112.453C373.82 112.117 373.943 111.722 373.943 111.317V105.086C373.943 105.065 373.938 105.045 373.927 105.027C373.916 105.01 373.901 104.995 373.882 104.986C373.863 104.976 373.842 104.972 373.822 104.974C373.801 104.976 373.781 104.983 373.764 104.995L373.595 105.126C373.482 105.207 373.402 105.313 373.354 105.445C370.019 114.417 361.863 122.355 353.102 126.238C353.089 126.243 353.079 126.252 353.071 126.263C353.063 126.274 353.059 126.287 353.058 126.3C353.057 126.314 353.059 126.327 353.065 126.339C353.071 126.351 353.08 126.361 353.091 126.369L355.663 127.995C355.738 128.042 355.817 128.045 355.899 128.005Z" stroke="#C6959B" stroke-width="2"/>
<path d="M387.028 112.524C388.886 113.126 390.778 113.232 392.705 112.842C392.884 112.804 393.044 112.707 393.158 112.566C393.272 112.425 393.332 112.25 393.33 112.069L393.294 110.1C393.287 109.753 393.108 109.582 392.756 109.585L388.468 109.61C388.4 109.61 388.333 109.629 388.275 109.665C388.217 109.7 388.17 109.752 388.14 109.812L386.91 112.241C386.898 112.267 386.891 112.296 386.89 112.325C386.889 112.354 386.894 112.383 386.905 112.41C386.916 112.437 386.933 112.461 386.954 112.48C386.975 112.5 387.001 112.515 387.028 112.524Z" stroke="#D4A2A7" stroke-width="2"/>
<path d="M345.104 116.528C347.697 119.209 353.025 120.83 356.406 118.542C356.608 118.408 356.587 118.322 356.345 118.285C352.294 117.689 348.725 116.053 345.637 113.377C345.203 113.003 344.879 112.692 344.664 112.443C344.199 111.911 343.967 111.995 343.967 112.695V114.589C343.967 114.706 344.008 114.821 344.085 114.912C344.556 115.467 344.633 116.043 345.104 116.528Z" stroke="#CD8F94" stroke-width="2"/>
<path d="M391.89 116.619C392.095 116.579 392.284 116.485 392.437 116.346C392.59 116.207 392.7 116.028 392.756 115.831L393.161 114.377C393.29 113.922 393.12 113.741 392.648 113.832C390.524 114.242 388.442 114.124 386.403 113.478C386.201 113.414 386.044 113.47 385.932 113.645L384.948 115.139C384.828 115.321 384.856 115.476 385.03 115.604C386.813 116.896 389.979 116.977 391.89 116.619Z" stroke="#C6959B" stroke-width="2"/>
<path d="M391.485 118.542C391.96 117.829 391.769 117.531 390.911 117.649C388.514 117.979 386.285 117.536 384.226 116.321C384.068 116.23 383.968 116.272 383.923 116.447C383.834 116.774 383.671 117.068 383.431 117.331C383.302 117.469 383.297 117.612 383.416 117.76C384.758 119.446 386.519 120.463 388.698 120.81C389.463 120.934 390.059 120.677 390.486 120.037L391.485 118.542Z" stroke="#C6959B" stroke-width="2"/>
<path d="M348.491 122.678L352.026 120.921C352.453 120.709 352.429 120.567 351.954 120.497C349.285 120.098 347.246 119.966 344.966 117.851C344.863 117.756 344.747 117.738 344.617 117.795C344.395 117.893 344.334 118.043 344.433 118.245C345.239 119.928 346.433 121.389 348.014 122.627C348.08 122.679 348.16 122.711 348.244 122.72C348.329 122.729 348.414 122.714 348.491 122.678Z" stroke="#CD8F94" stroke-width="2"/>
<path d="M381.92 122.112C382.96 122.673 383.949 123.304 385.004 123.844C386.259 124.48 387.725 122.945 388.59 122.183C388.625 122.152 388.651 122.111 388.664 122.067C388.678 122.022 388.679 121.975 388.667 121.93C388.655 121.885 388.632 121.844 388.598 121.811C388.565 121.778 388.523 121.755 388.478 121.744C386.167 121.153 384.297 120.557 382.74 118.689C382.596 118.52 382.425 118.487 382.227 118.588C381.667 118.881 381.239 119.335 380.941 119.951C380.911 120.011 380.894 120.078 380.89 120.148C380.805 121.043 381.148 121.698 381.92 122.112Z" stroke="#C6959B" stroke-width="2"/>
<path d="M360.438 130.343C363.584 128.631 366.438 126.374 369.091 124.097C369.336 123.887 369.533 123.629 369.673 123.341C369.812 123.053 369.89 122.739 369.901 122.42L370.014 119.275C370.038 118.639 369.821 118.546 369.363 118.997C365.992 122.355 361.57 126.288 357.129 128.323C356.794 128.478 356.784 128.651 357.098 128.843L359.531 130.323C359.829 130.504 360.131 130.511 360.438 130.343Z" stroke="#D4A2A7" stroke-width="2"/>
<path d="M371.617 123.289C368.19 125.894 365.761 128.131 361.33 130.923C361.313 130.934 361.3 130.948 361.29 130.964C361.28 130.981 361.274 130.999 361.272 131.019C361.271 131.038 361.274 131.058 361.281 131.076C361.288 131.095 361.3 131.112 361.314 131.125L362.933 132.564C362.991 132.618 363.056 132.628 363.128 132.595C366.004 131.258 368.666 129.595 371.115 127.606C371.16 127.572 371.19 127.529 371.207 127.475C371.221 127.431 371.233 127.387 371.243 127.343C371.291 127.182 371.39 127.062 371.54 126.985C371.8 126.85 371.921 126.635 371.904 126.339C371.853 125.531 371.974 124.859 372.268 124.324C372.442 124.004 372.391 123.678 372.114 123.344C371.967 123.166 371.802 123.147 371.617 123.289Z" stroke="#C6959B" stroke-width="2"/>
<path d="M372.878 131.943C373.026 130.883 372.985 129.096 371.909 128.464C371.827 128.414 371.747 128.414 371.668 128.464L370.167 129.388C370.156 129.394 370.147 129.403 370.14 129.414C370.133 129.424 370.129 129.436 370.128 129.449C370.127 129.461 370.129 129.474 370.134 129.485C370.139 129.497 370.147 129.507 370.157 129.515C371.254 130.373 371.74 131.509 371.617 132.923C371.614 132.957 371.62 132.991 371.635 133.022C371.65 133.053 371.673 133.08 371.702 133.098C371.731 133.117 371.765 133.128 371.8 133.129C371.834 133.13 371.869 133.122 371.899 133.105C372.37 132.842 372.796 132.509 372.878 131.943Z" stroke="#C6959B" stroke-width="2"/>
<path d="M367.718 131.464C368.589 132.65 368.902 133.494 368.681 134.958C368.589 135.574 368.782 135.678 369.26 135.271L370.039 134.614C370.367 134.335 370.522 133.983 370.505 133.559L370.403 131.095C370.395 130.918 370.339 130.746 370.241 130.598C370.142 130.45 370.005 130.33 369.844 130.252C369.683 130.173 369.503 130.139 369.324 130.152C369.145 130.166 368.972 130.226 368.825 130.328L367.79 131.045C367.623 131.159 367.599 131.299 367.718 131.464Z" stroke="#C6959B" stroke-width="2"/>
<path d="M367.273 135.745C367.349 135.806 367.441 135.842 367.539 135.85C367.636 135.858 367.733 135.836 367.817 135.788C367.902 135.739 367.969 135.667 368.011 135.58C368.053 135.493 368.067 135.396 368.052 135.301L367.555 132.297C367.543 132.229 367.517 132.164 367.478 132.107C367.439 132.049 367.388 132.001 367.328 131.966C367.268 131.93 367.2 131.908 367.131 131.901C367.061 131.893 366.991 131.901 366.925 131.923L364.962 132.564C364.852 132.601 364.759 132.676 364.701 132.776C364.642 132.875 364.622 132.992 364.645 133.105L364.732 133.554C364.752 133.663 364.81 133.761 364.896 133.832L367.273 135.745Z" stroke="#C6959B" stroke-width="2"/>
<path d="M297.01 80.76C296.516 80.92 296.143 80.9333 295.89 80.8C295.82 80.7637 295.758 80.7133 295.708 80.6519C295.659 80.5905 295.623 80.5194 295.602 80.4433C295.581 80.3672 295.577 80.2876 295.588 80.2095C295.6 80.1315 295.628 80.0568 295.67 79.99L296.52 78.67L301.96 74.16C302.4 73.7867 302.69 73.32 302.83 72.76L310.15 43.52C310.164 43.4657 310.164 43.4088 310.15 43.3543C310.137 43.2999 310.11 43.2497 310.072 43.2081C310.035 43.1665 309.987 43.1349 309.935 43.1161C309.882 43.0972 309.825 43.0917 309.77 43.1L305.53 43.78C305.395 43.8012 305.257 43.7833 305.131 43.7284C305.006 43.6735 304.898 43.5839 304.82 43.47L304.24 42.59C304.071 42.3335 303.974 42.0362 303.96 41.7295C303.946 41.4227 304.014 41.1178 304.159 40.8467C304.303 40.5756 304.517 40.3483 304.78 40.1888C305.042 40.0292 305.343 39.9433 305.65 39.94L310.59 39.88C310.723 39.8778 310.851 39.8299 310.953 39.7443C311.055 39.6588 311.125 39.5407 311.15 39.41L318.72 4.71001C319.313 1.98334 321.003 0.619995 323.79 0.619995H324.19C326.97 0.619995 328.04 1.97333 327.4 4.67999L319.19 39.7C319.036 40.3533 319.293 40.68 319.96 40.68L329.69 40.76C330.225 40.7662 330.739 40.9611 331.14 41.31L331.66 41.77C331.757 41.8536 331.825 41.9648 331.857 42.0887C331.888 42.2125 331.88 42.3434 331.835 42.4637C331.789 42.5841 331.708 42.6884 331.602 42.7627C331.495 42.8371 331.369 42.878 331.24 42.88L318.9 42.94C318.715 42.9423 318.537 43.0067 318.394 43.1228C318.25 43.2389 318.15 43.4 318.11 43.58C315.443 55.72 312.746 67.9433 310.02 80.25C309.51 82.58 308.58 86.92 312.21 87.26C315.23 87.54 320.73 81.87 322.56 79.7C323.466 78.6267 324.166 77.19 324.66 75.39C327.053 66.6167 331.83 59.3333 338.99 53.54C345.74 48.07 355.4 46.25 359.42 56.18C359.546 56.48 359.556 56.7867 359.45 57.1C357.48 62.9 343.36 66.84 337.91 67.66C337.736 67.6852 337.569 67.7452 337.42 67.8363C337.27 67.9274 337.141 68.0477 337.04 68.19C334.39 71.95 327.76 85.35 334.04 88.56C341.88 92.58 359.07 72.77 363 67.09C363.024 67.0563 363.055 67.028 363.091 67.007C363.127 66.986 363.167 66.9728 363.209 66.968C363.25 66.9633 363.292 66.9673 363.332 66.9797C363.372 66.9921 363.408 67.0126 363.44 67.04L363.71 67.27C364.01 67.53 364.053 67.83 363.84 68.17C356.74 79.4367 349.13 87.1533 341.01 91.32C336.8 93.48 330.95 94.96 326.98 91.94C323.99 89.66 323.79 86.54 323.49 83.05C323.482 82.9676 323.45 82.8893 323.398 82.825C323.345 82.7607 323.275 82.7133 323.196 82.6887C323.117 82.6641 323.033 82.6635 322.953 82.6868C322.874 82.7102 322.803 82.7565 322.75 82.82C319.51 86.74 309.7 96.1 303.97 92.38C299.66 89.58 300.79 82.55 301.8 78.28C302.086 77.0667 301.75 76.8567 300.79 77.65L297.01 80.76ZM354.59 53.71C352.703 52.03 350.763 51.9667 348.77 53.52C345.036 56.42 341.86 59.8833 339.24 63.91C339.193 63.9847 339.168 64.0714 339.169 64.1597C339.17 64.2481 339.196 64.3343 339.244 64.4081C339.293 64.482 339.362 64.5403 339.442 64.576C339.523 64.6118 339.613 64.6236 339.7 64.61C345.106 63.6833 350.146 61.7733 354.82 58.88C357.006 57.5267 357.143 55.9933 355.23 54.28L354.59 53.71Z" fill="#D4A5AA"/>
<path d="M180.18 75.76C180.726 80.86 180.976 85.06 180.93 88.36C180.923 88.7267 180.78 89.18 180.5 89.72C180.353 90.0067 180.193 90.0134 180.02 89.74C179.726 89.2867 179.306 89.03 178.76 88.97C178.406 86.9967 178.37 85.1267 178.65 83.36C178.976 81.3067 178.516 81.11 177.27 82.77C173.99 87.12 166.7 95.77 160.32 93.85C157.11 92.88 155.56 90.37 155.29 86.98C155.003 83.4 155.253 80.4 156.04 77.98C157.053 74.8667 156.596 74.6334 154.67 77.28C151.096 82.2 146.283 86.4934 140.23 90.16C132.96 94.57 121.97 96.44 120.89 84.51C119.99 74.45 126.12 63.49 133.29 56.3C139.49 50.07 152.24 43.77 156.61 56.3C156.713 56.6016 156.695 56.9314 156.56 57.22C153.69 63.26 141.28 66.56 135.49 67.49C134.67 67.6167 134.01 68.17 133.51 69.15C131.04 74.03 126.75 81.74 129.75 87.22C134.39 95.71 157.11 73.94 158.31 68.97C162.99 49.5567 167.583 30.1234 172.09 10.67C172.92 7.11004 174.68 1.92004 178.95 1.33004C188.15 0.060039 190.19 7.81003 188.44 15.31C186.41 24.02 180.93 32.64 174.83 39.09C173.65 40.34 172.21 41.8 171.8 43.83C169.266 56.33 166.653 68.8134 163.96 81.28C163.3 84.34 163.82 88.78 168.02 88.09C171.41 87.53 178.12 78.81 180.18 75.76ZM174.34 35.3C173.9 37.1534 174.32 37.3734 175.6 35.96C182.36 28.53 186.94 17.95 185.48 7.36004C185.441 7.09283 185.335 6.8399 185.17 6.62598C185.005 6.41207 184.789 6.24451 184.541 6.13969C184.293 6.03487 184.022 5.99638 183.756 6.02799C183.489 6.0596 183.235 6.16024 183.02 6.32004C181.48 7.46004 180.42 9.80004 179.92 11.88C178.053 19.6934 176.193 27.5 174.34 35.3ZM146.05 53.47C142.35 56.39 139.156 59.8167 136.47 63.75C136.41 63.8414 136.377 63.9486 136.376 64.0582C136.375 64.1679 136.405 64.2752 136.464 64.3668C136.523 64.4584 136.607 64.5303 136.705 64.5736C136.804 64.6168 136.914 64.6295 137.02 64.61C142.5 63.6367 147.593 61.6634 152.3 58.69C152.659 58.4639 152.959 58.1558 153.176 57.7909C153.393 57.426 153.52 57.0146 153.547 56.5904C153.574 56.1662 153.501 55.7412 153.333 55.3501C153.165 54.959 152.907 54.6129 152.58 54.34L151.61 53.54C149.776 52.0134 147.923 51.99 146.05 53.47Z" fill="#F0C0C1"/>
<path d="M221.87 51.82C224.523 52.9333 225.196 54.6833 223.89 57.07C216.95 62.81 209.52 73.65 210.31 83.43C210.75 88.87 215.87 89.6 220.2 88.16C223.08 87.2 226.336 85.2233 229.97 82.23C230.83 82.3633 231.08 82.8666 230.72 83.74C225.913 88.1466 220.823 91.2966 215.45 93.19C207.52 95.98 200.78 91.94 201.72 82.98C201.733 82.8643 201.708 82.7474 201.649 82.6474C201.589 82.5473 201.498 82.4697 201.39 82.4265C201.282 82.3832 201.163 82.3768 201.051 82.4081C200.938 82.4395 200.84 82.5069 200.77 82.6C197.65 86.52 194.12 90.53 189.59 93.08C185.35 95.46 180.05 93.85 178.76 88.97C179.306 89.03 179.726 89.2866 180.02 89.74C180.193 90.0133 180.353 90.0066 180.5 89.72C180.78 89.18 180.923 88.7266 180.93 88.36C180.976 85.06 180.726 80.86 180.18 75.76C185.34 53.6533 190.566 31.41 195.86 9.02998C196.55 6.10998 198.31 2.04998 202.09 1.37998C210.58 -0.130017 213.32 6.86998 212.04 13.96C210.12 24.61 202.88 34.12 195.76 41.92C195.533 42.1733 195.386 42.4666 195.32 42.8C193.453 51.8866 191.556 60.9533 189.63 70C188.92 73.33 187.28 78.72 187.01 83.25C186.75 87.52 190.12 89.81 193.71 86.67C196.423 84.29 198.803 81.8133 200.85 79.24C201.97 77.8266 203.14 75.7033 204.36 72.87C208.206 63.9366 214.043 56.92 221.87 51.82ZM202.99 12.34C201.243 20.0666 199.426 27.92 197.54 35.9C197.253 37.1133 197.543 37.2733 198.41 36.38C203.956 30.6333 207.473 23.5633 208.96 15.17C209.49 12.21 209.26 9.30997 208.19 6.67997C208.117 6.50109 208.002 6.34292 207.853 6.21952C207.705 6.09612 207.528 6.01135 207.339 5.97274C207.15 5.93413 206.955 5.94289 206.77 5.99824C206.585 6.05359 206.417 6.15381 206.28 6.28997C204.626 7.9233 203.53 9.93997 202.99 12.34Z" fill="#D4A5AA"/>
<path d="M84.5198 12.74C84.1665 11.98 83.7365 10.6367 83.2298 8.71003C83.1698 8.47003 83.2265 8.2667 83.3998 8.10003C83.5665 7.9467 83.6398 7.76002 83.6198 7.54002C83.5798 6.99335 83.9098 6.75336 84.6098 6.82003C88.1765 5.2267 91.5131 4.29002 94.6198 4.01002C96.1065 3.87668 96.1898 4.16335 94.8698 4.87002L89.9798 7.47002C88.4798 8.27002 88.5598 8.84002 90.2198 9.18002C97.3098 10.63 103.92 16.78 107.52 22.48C115.25 34.71 109.31 45.39 98.0698 52.06C97.9823 52.1122 97.911 52.1877 97.8639 52.278C97.8168 52.3683 97.7956 52.47 97.8029 52.5716C97.8102 52.6732 97.8455 52.7708 97.905 52.8535C97.9645 52.9362 98.0458 53.0008 98.1398 53.04C120.74 62.3 121.36 94.92 95.9598 100.93C81.0498 104.45 60.0098 104.91 52.2098 88.81C48.6198 81.42 51.3998 72.02 57.0598 66.33C62.4998 60.85 72.2398 62.45 74.2298 70.49C74.5031 71.5834 74.7231 73.72 74.8898 76.9C74.9064 77.1896 74.8089 77.4743 74.6183 77.693C74.4277 77.9116 74.159 78.047 73.8698 78.07L73.5598 78.1C73.4498 78.1097 73.3391 78.0965 73.2345 78.0613C73.1299 78.026 73.0337 77.9695 72.952 77.8953C72.8703 77.8211 72.8048 77.7308 72.7597 77.6301C72.7145 77.5294 72.6908 77.4204 72.6898 77.31C72.6431 74.35 72.4331 72.0767 72.0598 70.49C70.8098 65.22 63.8698 64.1 59.9798 66.66C55.3698 69.69 52.2598 78.4 52.8198 83.68C53.3398 88.56 55.7665 92.4667 60.0998 95.4C69.5265 101.767 79.7031 103.127 90.6298 99.48C109.29 93.25 110.88 73.21 101.39 58.73C99.7898 56.29 98.0798 55.31 95.4198 54.41C94.9265 54.2434 94.4631 54.3067 94.0298 54.6C89.1431 57.92 83.7331 59.03 77.7998 57.93C76.4331 57.6767 75.5498 56.8 75.1498 55.3C74.6198 53.37 75.9498 51.88 77.5198 51.04C82.2898 48.48 88.5998 49.54 93.5198 50.95C93.6607 50.9904 93.8098 50.9988 93.9566 50.9747C94.1034 50.9505 94.2445 50.8943 94.3698 50.81C99.5898 47.31 103.49 42.15 102.9 35.75C101.83 24.18 93.9898 18.22 84.5198 12.74ZM91.3798 52.38C86.9931 51.3134 82.6665 51.4767 78.3998 52.87C78.1542 52.9517 77.9309 53.0893 77.7476 53.272C77.5643 53.4547 77.4259 53.6776 77.3435 53.9229C77.2611 54.1683 77.2368 54.4294 77.2726 54.6858C77.3084 54.9421 77.4033 55.1866 77.5498 55.4C79.9398 58.88 89.0898 55.05 91.5598 53.32C92.1931 52.88 92.1331 52.5667 91.3798 52.38Z" fill="#F0C0C1"/>
<path d="M84.61 6.82002C83.91 6.75335 83.58 6.99334 83.62 7.54001C83.64 7.76001 83.5666 7.94668 83.4 8.10002C83.2266 8.26668 83.17 8.47002 83.23 8.71002C83.7366 10.6367 84.1666 11.98 84.52 12.74C80.7266 14.2 77.39 17.45 74.51 22.49C65.89 37.59 57.1933 54.32 48.42 72.68C41.6 86.95 28.37 106.55 9.74997 103.13C2.16997 101.74 0.129967 90.03 0.829967 84C2.18997 72.44 13.24 59.42 26.2 63.09C37.56 66.3 35.85 81.37 26.75 86.27C20.75 89.5 14.37 84.33 16.93 77.74C17.59 76.0534 18.47 74.7067 19.57 73.7C19.6515 73.6252 19.7483 73.5691 19.8536 73.5357C19.9589 73.5022 20.07 73.4923 20.1789 73.5067C20.2879 73.521 20.392 73.5592 20.4838 73.6186C20.5756 73.6779 20.6529 73.757 20.71 73.85L21.01 74.35C21.115 74.5194 21.1646 74.7173 21.1521 74.9162C21.1395 75.1151 21.0654 75.3052 20.94 75.46C20.5933 75.88 20.1066 76.73 19.48 78.01C16.39 84.31 23.61 86.93 27.56 82.83C33.37 76.81 34.17 63.65 21.99 65.42C14.69 66.47 6.45997 71.3 3.98997 78.74C2.00997 84.67 2.33997 93.56 7.42997 98.13C16.32 106.11 29.04 92.61 33.21 85.23C47.66 59.67 53.94 29.21 77.38 10.69C77.8333 10.33 77.7766 10.0833 77.21 9.95001C70.37 8.35001 60.33 11.15 54.06 14.03C53.6733 14.21 53.48 14.5133 53.48 14.94L53.47 15.43C53.47 15.6967 53.37 15.9167 53.17 16.09C49.24 19.62 42.51 22.32 37.61 21.61C35.5766 21.3167 33.5933 20.8167 31.66 20.11C31.5315 20.0627 31.4239 19.9716 31.3562 19.8526C31.2885 19.7337 31.265 19.5946 31.29 19.46C31.33 19.26 31.4633 19.1533 31.69 19.14C41.65 18.61 52.14 12.47 60.47 10C68.29 7.66668 76.3366 6.60669 84.61 6.82002Z" fill="#E29A9C"/>
<path d="M296.52 78.67L295.67 79.99C295.628 80.0568 295.6 80.1315 295.589 80.2095C295.577 80.2876 295.582 80.3672 295.602 80.4433C295.623 80.5195 295.659 80.5905 295.709 80.6519C295.758 80.7133 295.82 80.7637 295.89 80.8C296.143 80.9334 296.517 80.92 297.01 80.76C291.87 85.1 276.92 96.86 269.93 93.46C267.723 92.3867 266.933 90.2667 267.56 87.1C268.913 80.2534 271.247 72.3934 274.56 63.52C275.15 61.94 275.24 60.24 274.6 58.82C274.557 58.7258 274.493 58.643 274.412 58.5782C274.332 58.5134 274.237 58.4685 274.136 58.4471C274.035 58.4257 273.93 58.4284 273.83 58.4549C273.73 58.4815 273.637 58.5312 273.56 58.6C270.08 61.67 265.43 64.81 263.14 68.87C259.25 75.74 244.81 94.45 236.22 92.31C232.41 91.36 231.74 87.69 231.5 84.02C231.48 83.74 231.33 83.6167 231.05 83.65C230.95 83.6633 230.84 83.6934 230.72 83.74C231.08 82.8667 230.83 82.3633 229.97 82.23C230.99 81.49 231.57 80.8333 231.71 80.26C233.683 72.2067 235.47 64.2 237.07 56.24C237.098 56.0947 237.076 55.9441 237.007 55.8132C236.938 55.6822 236.826 55.5788 236.69 55.52C232.27 53.6067 228.003 54.1234 223.89 57.07C225.197 54.6834 224.523 52.9334 221.87 51.82C227.623 49.8267 232.693 50.2267 237.08 53.02C237.192 53.0921 237.319 53.1356 237.451 53.1469C237.584 53.1581 237.717 53.1368 237.84 53.0846C237.963 53.0325 238.072 52.9511 238.157 52.8476C238.243 52.744 238.302 52.6213 238.33 52.49L238.82 50.21C238.856 50.0303 238.953 49.8682 239.095 49.7501C239.237 49.632 239.415 49.565 239.6 49.56C243 49.49 246.76 48.36 245.65 53.72C243.863 62.3533 241.98 70.97 240 79.57C239.71 80.85 239.34 83.91 240.08 85C244.49 91.52 258.32 72.28 260.23 69.2C263.08 64.6 268 61.15 271.99 57.3C272.165 57.1293 272.267 56.8978 272.276 56.6526C272.286 56.4074 272.201 56.1669 272.04 55.98C271.3 55.1267 270.617 54.1333 269.99 53C266.64 46.94 276.11 35.85 280.89 42.65C284.06 47.16 279.2 52.08 276.91 55.52C276.71 55.82 276.75 56.08 277.03 56.3C280.08 58.69 283.95 61.92 284.35 65.95C284.463 67.1167 284.117 68.94 283.31 71.42C281.69 76.3933 280.38 81.5567 279.38 86.91C279.335 87.16 279.35 87.4173 279.425 87.66C279.5 87.9028 279.631 88.1238 279.809 88.3044C279.987 88.485 280.205 88.6198 280.445 88.6973C280.686 88.7749 280.941 88.793 281.19 88.75C285.02 88.1 293.25 81.29 296.52 78.67Z" fill="#B8848C"/>
<path d="M382.688 91.1905C382.057 91.2078 381.86 90.7396 382.097 89.7857C382.155 89.5429 382.44 89.1961 382.952 88.7452C383.073 88.6377 383.155 88.4989 383.197 88.329L383.667 86.3572L386.49 81.1702C386.574 81.021 386.607 80.8615 386.591 80.6915C386.566 80.4106 386.534 80.1383 386.495 79.8747C385.986 76.3889 391.892 79.0475 389.371 81.2794C388.949 81.654 388.233 81.5447 387.902 82.1222C386.154 85.1398 384.416 88.1625 382.688 91.1905Z" fill="#F0C0C1"/>
<path d="M383.573 86.1909L383.075 88.1054C383.031 88.2705 382.945 88.4052 382.817 88.5096C382.275 88.9474 381.974 89.2841 381.913 89.5199C381.663 90.446 381.871 90.9006 382.537 90.8838L379.04 96.4708C379.016 96.5084 379.003 96.5517 379.002 96.5961C379.001 96.6404 379.012 96.6843 379.034 96.723C379.055 96.7618 379.087 96.794 379.126 96.8163C379.165 96.8385 379.208 96.85 379.253 96.8496C383.053 96.8058 386.4 97.9795 389.294 100.371C389.443 100.495 389.578 100.482 389.7 100.33L390.68 99.1127C390.619 99.4899 390.446 99.8435 390.162 100.174C390.043 100.312 390.003 100.47 390.04 100.648C390.108 100.988 390.323 101.298 390.685 101.578C392.133 103.548 393.054 105.334 393.446 106.938C395.598 115.697 391.258 121.673 384.238 126.138C378.888 129.543 372.943 132.655 368.294 136.984C368.179 137.091 368.026 137.148 367.869 137.143C367.713 137.139 367.564 137.072 367.456 136.959C366.211 135.652 364.85 134.561 363.375 133.685C363.094 133.631 362.953 133.576 362.953 133.519C362.571 132.909 362.024 132.51 361.314 132.321C361.148 132.278 360.991 132.296 360.842 132.377C352.358 136.984 343.31 138.853 333.699 137.984C328.75 137.535 324.349 135.08 325.08 129.311C325.374 129.816 325.708 129.974 326.08 129.786C325.095 137.075 334.659 137.191 339.379 137.075C344.615 136.94 349.691 135.908 354.608 133.978C356.473 133.247 358.212 132.522 359.826 131.801C360.145 131.66 360.155 131.498 359.857 131.316C352.542 126.785 342.887 122.259 341.897 112.807C340.943 103.694 347.938 96.3647 357.172 96.9102C361.876 97.1864 365.414 99.2946 367.786 103.235C367.796 103.252 367.81 103.266 367.827 103.276C367.844 103.286 367.864 103.291 367.883 103.292C367.903 103.292 367.923 103.288 367.94 103.279C367.958 103.27 367.973 103.256 367.984 103.24C370.441 99.5623 372.908 98.0822 376.943 97.0365C377.113 96.9927 377.241 96.8968 377.329 96.7486L383.573 86.1909ZM353.725 98.7692C353.324 100.891 353.298 106.048 355.933 107.205C356.122 107.289 356.197 107.23 356.156 107.028C355.578 104.152 355.549 101.268 356.07 98.3752C356.148 97.9475 355.97 97.7589 355.537 97.8094L354.659 97.9054C354.134 97.966 353.823 98.2539 353.725 98.7692ZM357.491 98.6177C356.93 101.921 357.08 105.079 357.943 108.089C358.121 108.7 358.532 108.948 359.08 109.17C359.114 109.184 359.152 109.19 359.188 109.185C359.225 109.181 359.26 109.167 359.289 109.145C359.319 109.123 359.343 109.094 359.358 109.06C359.373 109.027 359.378 108.99 359.375 108.953C359.06 105.649 359.253 102.457 360.623 99.1784C360.826 98.6901 360.667 98.3954 360.146 98.2944L358.441 97.966C357.899 97.8616 357.583 98.0788 357.491 98.6177ZM353.024 104.513C352.405 102.411 352.583 100.704 352.816 98.4914C352.82 98.4519 352.815 98.412 352.8 98.375C352.786 98.338 352.763 98.3048 352.732 98.2783C352.702 98.2517 352.666 98.2324 352.627 98.2221C352.588 98.2117 352.546 98.2105 352.507 98.2186C351.251 98.5048 350.114 99.0386 349.095 99.8199C349.007 99.8884 348.949 99.9889 348.933 100.1C348.918 100.211 348.947 100.325 349.014 100.416C350.138 101.938 351.376 103.361 352.73 104.685C353.051 104.998 353.15 104.94 353.024 104.513ZM363.126 104.023C363.177 103.982 363.216 103.923 363.243 103.846C363.581 102.842 363.948 102.071 364.344 101.532C364.642 101.128 364.588 100.776 364.182 100.477L362.745 99.4107C362.332 99.1043 362.038 99.1918 361.862 99.6734C360.705 102.829 360.375 106.134 360.872 109.59C360.94 110.058 361.207 110.285 361.674 110.272C361.751 110.269 361.825 110.237 361.88 110.183C361.934 110.128 361.966 110.055 361.969 109.979C362.043 108.032 362.371 106.134 362.953 104.285C362.987 104.181 363.045 104.094 363.126 104.023ZM373.085 99.6077C371.405 100.239 369.776 102.184 368.898 103.694C368.486 104.402 368.715 105.119 368.441 105.766C364.705 114.671 358.024 118.965 349.578 122.85C349.523 122.874 349.476 122.912 349.44 122.959C349.404 123.006 349.38 123.062 349.371 123.121C349.362 123.18 349.368 123.241 349.388 123.297C349.408 123.354 349.442 123.405 349.486 123.446C351.522 125.31 353.075 125.214 355.41 123.88C362.767 119.681 368.241 113.885 371.832 106.493C371.981 106.19 372.072 105.811 372.106 105.356C372.116 105.191 372.167 105.038 372.258 104.897C373.019 103.699 372.913 102.659 373.349 101.381C373.495 100.963 373.591 100.514 373.639 100.032C373.646 99.9628 373.635 99.893 373.607 99.8291C373.58 99.7651 373.536 99.7093 373.481 99.6668C373.425 99.6244 373.36 99.5966 373.291 99.5863C373.222 99.576 373.151 99.5833 373.085 99.6077ZM383.243 107.938C382.319 109.721 382.568 112.585 382.644 114.52C382.674 115.345 382.949 115.432 383.466 114.783C386.162 111.383 388.603 106.594 389.065 102.229C389.116 101.748 388.952 101.356 388.573 101.052L386.837 99.6583C386.773 99.6072 386.697 99.5735 386.616 99.5602C386.535 99.5469 386.452 99.5546 386.375 99.5825C386.298 99.6105 386.23 99.6577 386.176 99.7196C386.123 99.7815 386.086 99.8561 386.07 99.9361C385.532 102.664 384.59 105.331 383.243 107.938ZM362.212 111.499C356.452 109.408 351.862 105.926 348.44 101.052C348.389 100.979 348.322 100.917 348.245 100.872C348.167 100.826 348.081 100.798 347.992 100.788C347.902 100.778 347.812 100.788 347.726 100.816C347.641 100.844 347.562 100.891 347.496 100.951L345.948 102.386C345.826 102.501 345.769 102.642 345.775 102.81C345.833 103.79 346.109 104.666 346.603 105.437C349.745 110.362 355.461 113.267 361.111 114.333C361.229 114.355 361.352 114.347 361.467 114.31C361.582 114.273 361.686 114.208 361.771 114.121L363.415 112.413C363.444 112.383 363.466 112.346 363.479 112.306C363.491 112.265 363.494 112.223 363.487 112.181C363.48 112.139 363.464 112.1 363.439 112.066C363.414 112.032 363.382 112.004 363.344 111.984C363.006 111.812 362.628 111.651 362.212 111.499ZM367.436 105.685C367.595 105.267 367.561 104.866 367.334 104.482L366.085 102.381C365.852 101.99 365.63 101.995 365.42 102.396C364.06 104.979 363.366 107.739 363.339 110.676C363.336 110.888 363.434 111.031 363.634 111.105L364.014 111.252C364.211 111.326 364.37 111.278 364.491 111.11C365.706 109.43 366.688 107.621 367.436 105.685ZM388.614 107.872C388.601 107.914 388.598 107.958 388.606 108.001C388.613 108.044 388.631 108.084 388.657 108.119C388.683 108.154 388.717 108.182 388.756 108.202C388.796 108.221 388.839 108.231 388.883 108.231L392.639 108.185C392.685 108.184 392.731 108.172 392.771 108.149C392.812 108.127 392.846 108.094 392.871 108.055C392.895 108.016 392.91 107.971 392.913 107.925C392.916 107.879 392.907 107.833 392.888 107.791L390.659 102.982C390.636 102.93 390.597 102.887 390.548 102.857C390.499 102.828 390.442 102.814 390.385 102.818C390.328 102.822 390.274 102.843 390.229 102.879C390.185 102.915 390.152 102.963 390.136 103.018L388.614 107.872ZM344.562 109.625C346.572 113.959 352.212 116.46 356.664 116.884C358.217 117.03 359.324 116.409 360.38 115.384C360.4 115.365 360.414 115.341 360.422 115.314C360.429 115.288 360.429 115.26 360.422 115.234C360.414 115.207 360.4 115.183 360.38 115.164C360.36 115.145 360.336 115.132 360.309 115.126C354.08 113.707 347.836 110.448 345.131 104.366C345.11 104.319 345.076 104.279 345.034 104.249C344.992 104.219 344.943 104.2 344.892 104.195C344.84 104.19 344.788 104.198 344.741 104.22C344.694 104.241 344.653 104.274 344.623 104.316C343.643 105.69 343.775 107.16 344.202 109.206C344.222 109.313 344.278 109.387 344.369 109.428C344.457 109.472 344.522 109.537 344.562 109.625ZM355.994 127.679C361.192 124.961 365.172 121.36 369.385 117.334C369.412 117.307 369.426 117.276 369.426 117.243C369.426 117.199 369.431 117.157 369.441 117.116C369.451 117.069 369.481 117.02 369.532 116.97C371.038 115.424 372.368 113.808 373.522 112.12C373.75 111.785 373.872 111.389 373.872 110.984V104.75C373.873 104.73 373.867 104.709 373.856 104.692C373.846 104.674 373.83 104.66 373.812 104.65C373.793 104.641 373.773 104.637 373.752 104.638C373.731 104.64 373.711 104.647 373.695 104.659L373.527 104.791C373.415 104.871 373.336 104.978 373.289 105.109C369.984 114.085 361.903 122.026 353.222 125.911C353.21 125.917 353.2 125.926 353.192 125.937C353.184 125.948 353.18 125.96 353.179 125.974C353.178 125.987 353.18 126 353.186 126.013C353.192 126.025 353.201 126.035 353.212 126.042L355.76 127.669C355.835 127.716 355.913 127.719 355.994 127.679ZM386.837 112.191C388.678 112.794 390.553 112.9 392.461 112.509C392.639 112.472 392.797 112.374 392.91 112.233C393.023 112.092 393.083 111.917 393.081 111.736L393.045 109.766C393.038 109.419 392.861 109.248 392.512 109.251L388.263 109.276C388.196 109.276 388.13 109.295 388.073 109.331C388.015 109.367 387.969 109.418 387.938 109.478L386.72 111.908C386.708 111.935 386.701 111.963 386.7 111.993C386.699 112.022 386.704 112.051 386.715 112.077C386.726 112.104 386.743 112.128 386.764 112.148C386.785 112.167 386.81 112.182 386.837 112.191ZM345.298 116.197C347.867 118.879 353.146 120.501 356.496 118.212C356.696 118.078 356.676 117.992 356.436 117.955C352.422 117.359 348.886 115.722 345.826 113.045C345.396 112.671 345.075 112.359 344.862 112.11C344.402 111.578 344.171 111.662 344.171 112.363V114.257C344.171 114.375 344.213 114.489 344.288 114.58C344.755 115.136 344.831 115.712 345.298 116.197ZM391.654 116.288C391.857 116.249 392.045 116.154 392.196 116.015C392.348 115.876 392.457 115.697 392.512 115.5L392.913 114.045C393.042 113.59 392.872 113.408 392.405 113.499C390.301 113.91 388.238 113.792 386.218 113.146C386.018 113.082 385.862 113.137 385.751 113.313L384.776 114.808C384.657 114.99 384.685 115.145 384.857 115.273C386.624 116.566 389.761 116.647 391.654 116.288ZM391.253 118.212C391.724 117.499 391.534 117.2 390.685 117.318C388.309 117.648 386.101 117.206 384.06 115.99C383.905 115.899 383.805 115.941 383.761 116.116C383.673 116.443 383.51 116.737 383.273 117C383.145 117.138 383.14 117.281 383.258 117.43C384.588 119.117 386.333 120.134 388.492 120.481C389.25 120.605 389.84 120.348 390.263 119.708L391.253 118.212ZM348.654 122.35L352.156 120.592C352.579 120.38 352.556 120.238 352.085 120.167C349.441 119.768 347.42 119.637 345.161 117.52C345.06 117.426 344.945 117.408 344.816 117.465C344.596 117.563 344.535 117.712 344.633 117.914C345.432 119.598 346.615 121.06 348.182 122.299C348.247 122.351 348.326 122.383 348.41 122.391C348.493 122.4 348.578 122.386 348.654 122.35ZM381.776 121.784C382.806 122.345 383.786 122.976 384.832 123.517C386.075 124.153 387.527 122.617 388.385 121.855C388.42 121.823 388.445 121.783 388.458 121.739C388.471 121.694 388.472 121.647 388.461 121.602C388.45 121.557 388.426 121.516 388.393 121.483C388.36 121.45 388.319 121.427 388.273 121.415C385.984 120.824 384.131 120.228 382.588 118.359C382.446 118.191 382.277 118.157 382.08 118.258C381.525 118.551 381.101 119.006 380.806 119.622C380.776 119.682 380.759 119.749 380.756 119.819C380.671 120.715 381.011 121.37 381.776 121.784ZM360.491 130.018C363.608 128.305 366.436 126.047 369.065 123.769C369.307 123.559 369.503 123.301 369.641 123.013C369.779 122.724 369.856 122.411 369.867 122.092L369.979 118.945C370.003 118.308 369.788 118.216 369.334 118.667C365.994 122.026 361.613 125.962 357.212 127.997C356.881 128.152 356.87 128.326 357.182 128.518L359.593 129.998C359.887 130.18 360.187 130.186 360.491 130.018ZM371.568 122.961C368.172 125.568 365.766 127.805 361.375 130.599C361.358 130.609 361.345 130.623 361.335 130.64C361.325 130.656 361.319 130.675 361.318 130.694C361.316 130.714 361.319 130.733 361.327 130.752C361.334 130.77 361.345 130.787 361.359 130.801L362.964 132.241C363.021 132.294 363.085 132.305 363.156 132.271C366.006 130.934 368.644 129.27 371.07 127.28C371.114 127.246 371.145 127.203 371.162 127.149C371.175 127.105 371.187 127.061 371.197 127.017C371.244 126.856 371.343 126.736 371.492 126.659C371.749 126.524 371.869 126.308 371.852 126.012C371.801 125.204 371.921 124.532 372.212 123.996C372.385 123.677 372.334 123.35 372.06 123.016C371.915 122.838 371.75 122.819 371.568 122.961ZM372.816 131.619C372.964 130.558 372.923 128.77 371.857 128.139C371.776 128.088 371.696 128.088 371.618 128.139L370.131 129.063C370.12 129.069 370.111 129.078 370.104 129.088C370.097 129.099 370.093 129.111 370.092 129.124C370.091 129.136 370.093 129.149 370.098 129.16C370.103 129.172 370.111 129.182 370.121 129.189C371.207 130.048 371.689 131.185 371.568 132.599C371.564 132.633 371.57 132.668 371.585 132.699C371.6 132.73 371.623 132.756 371.652 132.775C371.68 132.793 371.714 132.804 371.748 132.805C371.783 132.806 371.817 132.798 371.847 132.781C372.314 132.518 372.735 132.185 372.816 131.619ZM367.705 131.139C368.568 132.326 368.877 133.17 368.659 134.635C368.568 135.251 368.759 135.356 369.233 134.948L370.004 134.291C370.329 134.012 370.483 133.66 370.466 133.236L370.365 130.771C370.357 130.593 370.301 130.422 370.204 130.273C370.106 130.125 369.971 130.005 369.811 129.927C369.651 129.848 369.473 129.814 369.296 129.827C369.118 129.841 368.947 129.901 368.801 130.003L367.776 130.72C367.61 130.835 367.586 130.974 367.705 131.139ZM367.263 135.423C367.338 135.484 367.43 135.52 367.526 135.528C367.623 135.535 367.719 135.513 367.803 135.465C367.886 135.417 367.953 135.345 367.995 135.258C368.036 135.171 368.05 135.073 368.035 134.978L367.542 131.973C367.531 131.905 367.505 131.84 367.466 131.783C367.428 131.725 367.377 131.677 367.317 131.642C367.258 131.606 367.191 131.584 367.122 131.577C367.053 131.569 366.984 131.577 366.918 131.599L364.974 132.241C364.864 132.278 364.772 132.353 364.714 132.452C364.657 132.551 364.637 132.668 364.659 132.781L364.745 133.231C364.765 133.339 364.823 133.437 364.908 133.508L367.263 135.423Z" fill="#B8848C"/>
<path d="M390.685 102.191C390.308 101.892 390.084 101.56 390.014 101.195C389.975 101.004 390.017 100.835 390.141 100.687C390.437 100.333 390.617 99.9546 390.68 99.5507L394.238 95.0276C394.29 94.9643 394.329 94.891 394.352 94.812C394.376 94.733 394.384 94.6499 394.375 94.5678C394.079 91.0402 397.806 91.868 397.991 94.2702C398.145 96.2937 396.231 95.5037 395.348 96.5966C393.949 98.3315 392.395 100.196 390.685 102.191Z" fill="#F0C0C1"/>
<path d="M306.061 133.228C306.569 133.137 306.882 133.26 307 133.597C305.422 135.456 299.735 140.416 298.017 136.011C297.067 133.572 298.889 127.475 299.595 124.893C300.02 123.324 300.086 121.824 299.792 120.393C299.729 120.086 299.552 119.814 299.295 119.628C299.037 119.442 298.719 119.356 298.401 119.387C295.889 119.63 291.95 123.171 290.144 124.787C289.959 124.955 289.828 125.171 289.771 125.409L287.212 136.047C286.998 136.929 286.429 137.313 285.505 137.198L284.877 137.118C283.901 136.996 283.526 136.469 283.751 135.536L285.038 130.177C285.051 130.115 285.042 130.051 285.013 129.994C284.983 129.938 284.935 129.893 284.875 129.867C284.816 129.841 284.749 129.836 284.687 129.852C284.624 129.868 284.568 129.904 284.529 129.955C282.08 133.364 276.195 138.764 271.473 137.663C269.137 137.118 268.561 134.622 268.696 132.617C268.699 132.575 268.69 132.534 268.67 132.497C268.651 132.46 268.621 132.429 268.585 132.407C268.549 132.385 268.508 132.373 268.465 132.371C268.423 132.37 268.381 132.38 268.343 132.4C267.274 132.969 266.179 133.012 265.058 132.531C264.988 132.5 264.908 132.497 264.835 132.521C264.762 132.546 264.701 132.596 264.664 132.662C262.412 136.718 256.553 141.113 252.936 135.602C252.271 134.589 251.925 132.883 251.898 130.485C251.413 130.984 251.114 130.822 251 130L252.022 129.182C252.154 129.074 252.235 128.938 252.266 128.773C252.975 125.089 254.787 122.144 257.7 119.938C259.765 118.372 262.63 118.039 264.659 119.877C267.565 122.509 266.984 127.863 265.515 130.98C265.072 131.916 265.375 132.309 266.423 132.157L267.207 132.046C268.269 131.891 268.931 131.307 269.194 130.293C270.257 126.134 272.535 122.745 276.029 120.125C278.951 117.933 283.492 117.336 284.711 121.741C284.732 121.816 284.736 121.894 284.723 121.97C284.711 122.046 284.681 122.119 284.638 122.183C284.594 122.248 284.537 122.303 284.47 122.344C284.403 122.385 284.328 122.412 284.249 122.423L284.094 122.448C284.012 122.458 283.929 122.441 283.86 122.398C283.791 122.356 283.739 122.291 283.715 122.216C282.677 119.059 280.777 119.549 278.842 121.428C275.728 124.454 273.118 128.278 272.293 132.597C271.966 134.309 272.666 136.042 274.695 135.936C278.214 135.749 283.274 130.425 285.38 127.702C285.65 127.352 285.816 127.047 285.879 126.788C287.937 117.981 290.061 109.189 292.251 100.409C292.795 98.2306 294.127 97.158 296.247 97.1917C300.368 97.2624 299.382 103.582 298.453 105.845C297.13 109.052 295.132 111.75 292.9 114.407C292.402 115.003 292.065 115.659 291.888 116.377C291.404 118.353 290.93 120.329 290.466 122.302C290.407 122.561 290.387 122.778 290.404 122.954C290.409 123.005 290.43 123.053 290.463 123.093C290.496 123.133 290.54 123.162 290.591 123.178C290.641 123.194 290.695 123.195 290.745 123.181C290.796 123.167 290.842 123.139 290.876 123.1C292.578 121.261 294.514 119.812 296.683 118.751C298.894 117.665 302.324 117.655 303.232 120.468C303.653 121.787 303.57 123.262 303.238 124.752C302.781 126.813 300.98 133.011 301.857 134.708C301.933 134.853 302.049 134.951 302.205 135.001C303.71 135.506 305.044 134.046 306.061 133.228ZM297.052 99.2728C296.908 99.2835 296.769 99.3301 296.649 99.408C296.529 99.4858 296.432 99.5924 296.367 99.7174C295.775 100.862 295.332 102.097 295.038 103.42C294.37 106.424 293.661 109.301 292.91 112.053C292.689 112.854 292.871 112.954 293.455 112.351C296.341 109.391 298.38 104.587 298.116 100.399C298.064 99.6012 297.709 99.2257 297.052 99.2728ZM265.676 126.419C265.835 126.328 265.927 126.191 265.951 126.01C266.242 123.923 265.65 120.332 262.811 120.423C260.087 120.509 257.331 124.767 256.454 126.904C255.385 129.5 254.134 134.163 256.314 136.547C257.2 137.517 258.4 137.581 259.916 136.739C261.549 135.836 262.865 134.36 263.865 132.309C263.951 132.134 263.982 131.974 263.958 131.829C263.934 131.66 263.873 131.499 263.777 131.344C262.64 129.45 263.906 127.429 265.676 126.419ZM264.685 130.95L265.691 127.626C265.695 127.617 265.696 127.607 265.695 127.597C265.694 127.588 265.691 127.578 265.686 127.57C265.681 127.561 265.675 127.554 265.667 127.548C265.659 127.542 265.649 127.537 265.64 127.535L265.629 127.53C265.512 127.496 265.383 127.504 265.25 127.555C265.116 127.606 264.981 127.698 264.852 127.827C264.722 127.956 264.602 128.118 264.496 128.304C264.391 128.491 264.304 128.698 264.238 128.914L264.187 129.101C264.056 129.534 264.024 129.976 264.098 130.33C264.172 130.684 264.346 130.922 264.581 130.99L264.597 130.995C264.614 131 264.634 130.998 264.65 130.99C264.666 130.981 264.679 130.967 264.685 130.95Z" fill="#F0C0C1"/>
<path d="M355.734 107.156C352.741 106.053 352.77 101.136 353.225 99.1135C353.337 98.6223 353.691 98.3478 354.287 98.29L355.284 98.1985C355.776 98.1504 355.978 98.3302 355.89 98.7379C355.298 101.496 355.33 104.245 355.988 106.987C356.034 107.18 355.949 107.236 355.734 107.156Z" fill="#F0C0C1"/>
<path d="M357.374 98.8532C357.477 98.3261 357.834 98.1137 358.444 98.2158L360.366 98.537C360.953 98.6358 361.133 98.924 360.904 99.4016C359.359 102.608 359.142 105.731 359.497 108.962C359.501 108.998 359.494 109.034 359.477 109.067C359.461 109.1 359.434 109.129 359.401 109.15C359.367 109.172 359.328 109.185 359.287 109.189C359.245 109.194 359.203 109.189 359.165 109.175C358.547 108.957 358.084 108.715 357.884 108.117C356.911 105.173 356.741 102.085 357.374 98.8532Z" fill="#F0C0C1"/>
<path d="M352.748 98.4828C352.523 100.805 352.352 102.597 352.949 104.802C353.07 105.251 352.975 105.311 352.665 104.982C351.36 103.593 350.165 102.1 349.082 100.503C349.017 100.407 348.989 100.288 349.004 100.171C349.018 100.054 349.074 99.9489 349.16 99.8771C350.142 99.0571 351.239 98.4969 352.45 98.1965C352.488 98.188 352.528 98.1892 352.566 98.2001C352.604 98.211 352.639 98.2312 352.668 98.2591C352.697 98.287 352.719 98.3218 352.733 98.3606C352.747 98.3995 352.753 98.4413 352.748 98.4828Z" fill="#E29A9C"/>
<path d="M207.536 116.482C207.552 116.457 207.56 116.429 207.561 116.399C207.561 116.37 207.554 116.341 207.539 116.316C207.525 116.29 207.504 116.269 207.478 116.255C207.452 116.24 207.423 116.233 207.394 116.234C205.508 116.264 204.585 118.007 203.181 118.306C200.666 118.842 198.03 119.101 197.341 121.557C197.185 122.124 197.077 122.114 197.016 121.527C196.783 119.263 199.12 117.591 201.097 117.065C203.497 116.423 205.876 115.711 208.236 114.927C208.394 114.873 208.523 114.777 208.621 114.639C213.87 107.268 220.815 102.179 229.457 99.3734C231.212 98.8062 234.005 99.5507 234 101.754C233.985 107.087 217.498 112.861 213.432 114.168C213.27 114.222 213.138 114.315 213.037 114.446C208.408 120.443 205.802 129.053 209.62 136.063C212.56 141.462 219.789 142.596 225.087 140.332C227.626 139.248 230.015 137.413 232.256 134.827C232.28 134.798 232.312 134.778 232.347 134.768C232.382 134.758 232.42 134.759 232.454 134.771C232.508 134.788 232.545 134.815 232.565 134.852C232.575 134.879 232.57 134.913 232.55 134.954C228.783 142.419 221.336 144.227 213.609 142.682C210.066 141.978 207.622 140.236 205.685 137.126C201.614 130.578 203.663 122.514 207.536 116.482ZM231.384 102.093C228.038 101.151 216.819 109.62 214.816 112.38C214.549 112.744 214.628 112.854 215.054 112.709C220.707 110.769 227.541 108.054 231.805 103.663C231.919 103.546 232 103.401 232.042 103.242C232.083 103.084 232.082 102.917 232.04 102.759C231.998 102.601 231.915 102.456 231.8 102.34C231.685 102.223 231.542 102.138 231.384 102.093Z" fill="#B8848C"/>
<path d="M363.374 104.226C362.774 106.068 362.436 107.959 362.36 109.898C362.357 109.975 362.324 110.048 362.268 110.102C362.212 110.156 362.136 110.188 362.057 110.19C361.576 110.204 361.301 109.977 361.231 109.511C360.719 106.068 361.058 102.775 362.25 99.6308C362.431 99.1509 362.734 99.0637 363.159 99.369L364.638 100.431C365.056 100.73 365.112 101.08 364.805 101.483C364.398 102.02 364.02 102.788 363.671 103.788C363.644 103.865 363.603 103.924 363.551 103.964C363.468 104.035 363.408 104.122 363.374 104.226Z" fill="#F0C0C1"/>
<path d="M369.115 104.257C370.019 102.764 371.698 100.841 373.428 100.217C373.495 100.192 373.568 100.185 373.639 100.195C373.711 100.206 373.778 100.233 373.835 100.275C373.892 100.317 373.937 100.372 373.965 100.435C373.994 100.499 374.005 100.568 373.998 100.636C373.949 101.112 373.85 101.557 373.7 101.97C373.25 103.233 373.36 104.262 372.576 105.446C372.482 105.586 372.429 105.738 372.419 105.901C372.384 106.35 372.29 106.725 372.137 107.025C368.439 114.334 362.801 120.064 355.224 124.217C352.819 125.535 351.219 125.63 349.123 123.787C349.077 123.747 349.042 123.696 349.022 123.64C349.001 123.584 348.995 123.524 349.004 123.466C349.014 123.408 349.038 123.353 349.075 123.306C349.112 123.259 349.161 123.222 349.217 123.198C357.916 119.357 364.797 115.111 368.644 106.305C368.927 105.666 368.691 104.957 369.115 104.257Z" fill="#D4A5AA"/>
<path d="M383.632 108.222C384.872 105.725 385.74 103.17 386.235 100.557C386.25 100.48 386.283 100.409 386.332 100.35C386.381 100.29 386.445 100.245 386.515 100.218C386.586 100.192 386.663 100.184 386.737 100.197C386.812 100.21 386.882 100.242 386.941 100.291L388.538 101.627C388.887 101.917 389.038 102.293 388.992 102.754C388.567 106.935 386.319 111.523 383.838 114.779C383.361 115.402 383.109 115.318 383.081 114.528C383.011 112.674 382.782 109.931 383.632 108.222Z" fill="#D4A5AA"/>
<path d="M361.773 111.463C362.173 111.608 362.535 111.763 362.859 111.928C362.895 111.946 362.926 111.973 362.95 112.006C362.974 112.039 362.99 112.077 362.997 112.117C363.003 112.156 363 112.197 362.988 112.236C362.976 112.275 362.956 112.31 362.928 112.339L361.349 113.976C361.269 114.059 361.168 114.122 361.058 114.157C360.947 114.193 360.83 114.2 360.716 114.18C355.295 113.158 349.81 110.373 346.795 105.651C346.32 104.912 346.056 104.073 346.001 103.133C345.994 102.972 346.049 102.836 346.166 102.726L347.652 101.351C347.715 101.293 347.79 101.248 347.872 101.221C347.954 101.194 348.041 101.185 348.127 101.194C348.213 101.204 348.296 101.231 348.37 101.275C348.444 101.318 348.508 101.377 348.558 101.448C351.841 106.12 356.246 109.458 361.773 111.463Z" fill="#E29A9C"/>
<path d="M367.883 105.708C366.991 107.604 365.822 109.374 364.374 111.019C364.228 111.184 364.039 111.23 363.805 111.158L363.351 111.014C363.113 110.942 362.996 110.802 363 110.594C363.032 107.719 363.859 105.018 365.481 102.489C365.731 102.097 365.995 102.092 366.273 102.474L367.762 104.531C368.032 104.907 368.072 105.299 367.883 105.708Z" fill="#F0C0C1"/>
<path d="M389.011 107.86L390.424 103.375C390.439 103.325 390.469 103.28 390.51 103.248C390.552 103.215 390.602 103.195 390.655 103.192C390.708 103.188 390.761 103.201 390.806 103.228C390.851 103.255 390.887 103.295 390.909 103.343L392.976 107.785C392.994 107.824 393.002 107.866 392.999 107.909C392.997 107.951 392.983 107.993 392.96 108.029C392.937 108.065 392.906 108.095 392.868 108.116C392.831 108.137 392.789 108.148 392.746 108.149L389.261 108.191C389.22 108.191 389.18 108.182 389.144 108.164C389.107 108.146 389.076 108.12 389.051 108.088C389.027 108.056 389.011 108.018 389.004 107.978C388.997 107.939 388.999 107.898 389.011 107.86Z" fill="#F0C0C1"/>
<path d="M344.474 109.544C344.385 109.503 344.331 109.427 344.312 109.317C343.899 107.224 343.772 105.721 344.719 104.316C344.748 104.273 344.788 104.239 344.833 104.217C344.879 104.196 344.929 104.187 344.979 104.192C345.028 104.198 345.076 104.217 345.117 104.247C345.157 104.278 345.189 104.319 345.21 104.367C347.826 110.588 353.863 113.92 359.885 115.371C359.911 115.378 359.935 115.391 359.955 115.41C359.974 115.43 359.988 115.454 359.995 115.481C360.002 115.508 360.002 115.537 359.995 115.564C359.987 115.591 359.973 115.615 359.954 115.635C358.933 116.684 357.863 117.319 356.361 117.169C352.057 116.735 346.604 114.178 344.66 109.745C344.621 109.656 344.559 109.589 344.474 109.544Z" fill="#E29A9C"/>
<path d="M369.446 117.849C365.171 121.863 361.132 125.453 355.857 128.163C355.775 128.203 355.696 128.2 355.62 128.153L353.034 126.531C353.023 126.524 353.014 126.514 353.008 126.501C353.002 126.489 352.999 126.476 353 126.463C353.001 126.45 353.006 126.437 353.014 126.426C353.021 126.415 353.032 126.406 353.044 126.4C361.853 122.527 370.054 114.61 373.408 105.661C373.456 105.53 373.536 105.424 373.65 105.343L373.82 105.212C373.837 105.2 373.857 105.193 373.878 105.191C373.899 105.19 373.92 105.194 373.938 105.203C373.957 105.213 373.973 105.227 373.984 105.245C373.995 105.262 374 105.282 374 105.303V111.518C374 111.922 373.876 112.316 373.645 112.651C372.473 114.333 371.124 115.945 369.596 117.486C369.544 117.536 369.513 117.585 369.503 117.632C369.493 117.672 369.487 117.714 369.487 117.758C369.487 117.791 369.474 117.822 369.446 117.849Z" fill="#D4A5AA"/>
<path d="M387.129 112.562C387.103 112.551 387.08 112.534 387.06 112.512C387.041 112.49 387.025 112.462 387.015 112.431C387.004 112.401 386.999 112.368 387 112.334C387.001 112.301 387.007 112.268 387.019 112.237L388.165 109.452C388.193 109.382 388.237 109.323 388.291 109.282C388.345 109.241 388.407 109.22 388.47 109.22L392.465 109.191C392.793 109.187 392.96 109.384 392.966 109.782L393 112.041C393.003 112.247 392.946 112.449 392.84 112.61C392.733 112.772 392.584 112.884 392.418 112.927C390.623 113.375 388.86 113.253 387.129 112.562Z" fill="#F0C0C1"/>
<path d="M356.858 118.178C353.363 120.303 347.855 118.797 345.176 116.306C344.688 115.856 344.609 115.321 344.122 114.805C344.043 114.72 344 114.614 344 114.505V112.745C344 112.095 344.24 112.017 344.72 112.511C344.943 112.742 345.278 113.032 345.726 113.379C348.918 115.865 352.607 117.385 356.795 117.939C357.045 117.973 357.066 118.053 356.858 118.178Z" fill="#E29A9C"/>
<path d="M391.739 116.971C389.903 117.399 386.862 117.303 385.149 115.76C384.982 115.607 384.955 115.422 385.07 115.205L386.015 113.421C386.123 113.212 386.274 113.145 386.468 113.222C388.427 113.993 390.427 114.134 392.467 113.644C392.92 113.535 393.084 113.752 392.96 114.295L392.571 116.031C392.518 116.266 392.412 116.479 392.265 116.645C392.118 116.812 391.936 116.924 391.739 116.971Z" fill="#D4A5AA"/>
<path d="M321.967 115.412C321.277 115.914 320.519 116.171 319.695 116.183C319.441 116.187 319.252 116.057 319.128 115.794L319.046 115.63C319.021 115.579 319.006 115.522 319.001 115.463C318.997 115.404 319.003 115.345 319.02 115.288C319.036 115.232 319.063 115.181 319.097 115.137C319.132 115.093 319.174 115.059 319.221 115.035L322.807 113.232C322.908 113.182 323.02 113.178 323.123 113.219C323.225 113.261 323.311 113.345 323.363 113.456L324.935 116.772C325.069 117.055 324.997 117.195 324.718 117.191L324.203 117.179C323.842 117.175 323.545 117.009 323.312 116.681L322.477 115.503C322.329 115.3 322.159 115.27 321.967 115.412Z" fill="#B8848C"/>
<path d="M251.132 130.264C251.242 131.074 251.532 131.233 252 130.742C249.481 132.837 240.292 140.393 237.457 137.566C236.942 137.055 236.741 136.32 236.855 135.361C237.261 131.942 238.601 128.448 240.046 124.371C240.224 123.874 240.125 123.436 239.75 123.058C239.63 122.935 239.504 122.928 239.374 123.038L234.622 127.104C234.564 127.153 234.49 127.18 234.414 127.178C234.338 127.176 234.265 127.146 234.21 127.094L234.069 126.96C234.047 126.939 234.029 126.913 234.017 126.885C234.005 126.857 234 126.827 234 126.797C234 126.766 234.007 126.736 234.02 126.709C234.033 126.681 234.052 126.656 234.075 126.636L238.797 122.525C239.008 122.342 239.031 122.137 238.867 121.908C237.306 119.778 237.181 118.369 238.947 116.284C240.071 114.95 241.269 114.837 242.54 115.945C244.146 117.344 242.089 120.131 241.015 121.48C240.888 121.642 240.908 121.785 241.075 121.908C242.917 123.242 244.759 124.715 244.006 127.333C243.218 130.08 242.064 132.902 242.209 135.799C242.213 135.867 242.233 135.933 242.267 135.992C242.302 136.05 242.351 136.1 242.409 136.136C242.467 136.172 242.533 136.194 242.601 136.199C242.67 136.205 242.738 136.194 242.801 136.167C245.712 134.943 248.713 132.335 251.132 130.264Z" fill="#E29A9C"/>
<path d="M391.728 118.675L390.659 120.312C390.202 121.012 389.564 121.294 388.745 121.158C386.413 120.778 384.529 119.665 383.092 117.818C382.964 117.656 382.97 117.499 383.108 117.348C383.364 117.06 383.54 116.738 383.635 116.38C383.682 116.188 383.79 116.142 383.958 116.242C386.163 117.573 388.548 118.057 391.114 117.696C392.032 117.567 392.236 117.893 391.728 118.675Z" fill="#D4A5AA"/>
<path d="M325.605 129.933C325.237 130.121 324.907 129.963 324.616 129.458C323.582 130.427 322.624 131.789 321.876 132.576C319.498 135.083 315.087 138.402 311.725 138.18C309.181 138.009 307.571 136.415 307.561 133.746C307.561 133.71 307.553 133.673 307.539 133.64C307.524 133.606 307.503 133.576 307.477 133.551C307.45 133.527 307.419 133.508 307.385 133.496C307.351 133.485 307.315 133.48 307.28 133.484C307.159 133.494 307.035 133.529 306.908 133.59C306.794 133.254 306.492 133.131 306 133.222L307.515 131.612C307.632 131.488 307.711 131.342 307.751 131.174C308.895 126.351 311.143 122.194 315.067 119.102C317.712 117.024 321.846 116.025 323.944 119.354C324.73 120.602 324.539 121.619 323.372 122.406C320.669 124.226 317.695 125.357 314.45 125.801C314.321 125.819 314.196 125.863 314.086 125.932C313.975 126.001 313.88 126.092 313.808 126.2C312.523 128.137 310.014 133.469 312.057 135.487C315.403 138.801 324.33 128.394 326.142 125.801C326.186 125.739 326.25 125.693 326.322 125.67C326.395 125.647 326.472 125.649 326.543 125.675L326.744 125.751C326.792 125.768 326.837 125.795 326.875 125.83C326.913 125.865 326.943 125.907 326.965 125.954C326.986 126.001 326.998 126.052 327 126.104C327.001 126.155 326.993 126.207 326.975 126.255L325.605 129.933ZM322.413 119.481C322.107 119.112 321.673 118.874 321.198 118.814C320.723 118.754 320.243 118.877 319.854 119.158C317.974 120.52 316.392 122.191 315.107 124.172C315.088 124.204 315.078 124.241 315.078 124.278C315.079 124.316 315.09 124.352 315.111 124.383C315.131 124.415 315.16 124.439 315.194 124.455C315.229 124.47 315.266 124.475 315.303 124.47C317.802 124.053 320.112 123.129 322.233 121.7C323.099 121.115 323.198 120.42 322.529 119.617L322.413 119.481Z" fill="#D4A5AA"/>
<path d="M348.134 123.146C348.056 123.183 347.97 123.197 347.885 123.188C347.801 123.179 347.72 123.147 347.654 123.095C346.061 121.846 344.858 120.374 344.046 118.677C343.946 118.473 344.008 118.322 344.232 118.224C344.363 118.166 344.48 118.185 344.583 118.28C346.879 120.413 348.933 120.545 351.622 120.947C352.101 121.018 352.125 121.161 351.695 121.375L348.134 123.146Z" fill="#E29A9C"/>
<path d="M382.07 122.123C381.278 121.669 380.925 120.95 381.013 119.967C381.017 119.89 381.034 119.816 381.066 119.75C381.371 119.074 381.81 118.575 382.385 118.253C382.588 118.142 382.763 118.179 382.911 118.364C384.509 120.416 386.427 121.07 388.798 121.719C388.845 121.731 388.887 121.757 388.921 121.793C388.956 121.829 388.98 121.874 388.992 121.924C389.004 121.973 389.003 122.025 388.989 122.074C388.975 122.123 388.949 122.167 388.913 122.201C388.025 123.038 386.522 124.724 385.234 124.025C384.151 123.432 383.137 122.739 382.07 122.123Z" fill="#D4A5AA"/>
<path d="M369.086 124.229C366.462 126.361 363.64 128.475 360.529 130.077C360.225 130.235 359.926 130.229 359.632 130.058L357.226 128.673C356.915 128.493 356.925 128.331 357.256 128.186C361.649 126.281 366.021 122.598 369.355 119.454C369.807 119.031 370.022 119.118 369.998 119.714L369.887 122.659C369.876 122.958 369.799 123.251 369.661 123.521C369.523 123.791 369.328 124.032 369.086 124.229Z" fill="#F0C0C1"/>
<path d="M371.748 123.334C372.022 123.652 372.073 123.964 371.9 124.27C371.609 124.781 371.489 125.423 371.539 126.195C371.556 126.478 371.436 126.684 371.179 126.812C371.03 126.886 370.932 127 370.884 127.155C370.874 127.197 370.862 127.238 370.849 127.28C370.832 127.332 370.801 127.373 370.757 127.406C368.33 129.307 365.691 130.895 362.84 132.172C362.769 132.205 362.704 132.195 362.647 132.143L361.042 130.768C361.028 130.755 361.016 130.739 361.009 130.722C361.002 130.704 360.999 130.685 361 130.667C361.002 130.648 361.008 130.63 361.018 130.614C361.027 130.598 361.041 130.585 361.057 130.575C365.45 127.907 367.857 125.77 371.255 123.281C371.438 123.145 371.602 123.163 371.748 123.334Z" fill="#D4A5AA"/>
<path d="M371.9 128.231C373.048 128.902 373.092 130.803 372.933 131.93C372.846 132.532 372.392 132.886 371.889 133.165C371.857 133.183 371.821 133.192 371.783 133.191C371.746 133.19 371.71 133.178 371.679 133.158C371.648 133.139 371.623 133.111 371.608 133.078C371.592 133.045 371.585 133.008 371.589 132.972C371.72 131.469 371.201 130.261 370.032 129.348C370.021 129.34 370.012 129.329 370.007 129.317C370.001 129.305 369.999 129.291 370 129.278C370.001 129.265 370.006 129.252 370.013 129.241C370.021 129.229 370.031 129.22 370.043 129.214L371.644 128.231C371.727 128.177 371.813 128.177 371.9 128.231Z" fill="#D4A5AA"/>
<path d="M369.088 134.672C369.318 133.308 368.991 132.522 368.078 131.416C367.953 131.262 367.978 131.132 368.153 131.025L369.238 130.357C369.392 130.262 369.573 130.206 369.761 130.194C369.949 130.181 370.137 130.213 370.306 130.286C370.475 130.359 370.618 130.471 370.721 130.609C370.824 130.747 370.883 130.907 370.891 131.072L370.999 133.369C371.017 133.764 370.854 134.092 370.51 134.352L369.694 134.964C369.193 135.344 368.991 135.247 369.088 134.672Z" fill="#D4A5AA"/>
<path d="M356.871 131.6C356.533 132.141 356.308 132.61 356.368 132.646C356.428 132.683 356.751 132.274 357.089 131.732C357.427 131.19 357.652 130.722 357.592 130.685C357.532 130.649 357.209 131.058 356.871 131.6Z" fill="#D4A5AA"/>
<path d="M367.312 136.084L365.228 134.147C365.153 134.076 365.102 133.976 365.084 133.867L365.008 133.412C364.988 133.298 365.006 133.18 365.057 133.079C365.108 132.979 365.19 132.903 365.286 132.865L367.006 132.216C367.065 132.194 367.126 132.186 367.187 132.194C367.248 132.201 367.307 132.224 367.36 132.26C367.412 132.296 367.457 132.344 367.492 132.402C367.526 132.46 367.549 132.526 367.559 132.594L367.995 135.634C368.008 135.73 367.996 135.829 367.959 135.917C367.923 136.004 367.863 136.078 367.789 136.126C367.715 136.175 367.63 136.197 367.545 136.189C367.46 136.182 367.378 136.145 367.312 136.084Z" fill="#D4A5AA"/>
<path d="M362.575 134.191C362.575 134.246 362.717 134.299 363 134.351L355.058 143.184C355.048 143.193 355.034 143.193 355.017 143.184C355.014 143.18 355.01 143.179 355.007 143.179C355 143.172 354.998 143.166 355.002 143.159L362.575 134.191Z" fill="#D4A5AA"/>
</svg>
